<svg id="topo-logo" xmlns="http://www.w3.org/2000/svg" xmlns:xlink="http://www.w3.org/1999/xlink" width="92.9" height="126.564" viewBox="0 0 92.9 126.564">
  <defs>
    <clipPath id="clip-path">
      <rect id="Retângulo_10" data-name="Retângulo 10" width="92.9" height="126.564" fill="none"/>
    </clipPath>
  </defs>
  <g id="c">
    <g id="Grupo_3" data-name="Grupo 3">
      <path id="Caminho_1" data-name="Caminho 1" d="M12.431,108.4v.877h.438l-2.138,7.109L8.753,109.3h.353v-.877h-2.9v.877h.353l-2.1,7.131-2-7.152h.363V108.4H.19v.877h.5l2.886,9.6H5.321L7.6,110.891l2.288,7.986H11.6l2.94-9.6h.577V108.4Z" transform="translate(0.013 7.484)" fill="#231f20"/>
      <g id="Grupo_1" data-name="Grupo 1" clip-path="url(#clip-path)">
        <path id="Caminho_2" data-name="Caminho 2" d="M28.16,107.431a.774.774,0,0,1-.577.267.739.739,0,0,1-.577-.267.958.958,0,0,1-.246-.663.9.9,0,0,1,.246-.641.774.774,0,0,1,.577-.267.739.739,0,0,1,.577.267.924.924,0,0,1,.246.641.977.977,0,0,1-.246.663M26.011,119v-.9h.748v-8.723h-.267c-.107,0-.278.011-.5.011v-.9h2.277v9.6h.727v.9H26.011Z" transform="translate(1.794 7.309)" fill="#231f20"/>
        <path id="Caminho_3" data-name="Caminho 3" d="M46.791,118.838v-.877h.78v-6.029a2.685,2.685,0,0,0-.449-1.625,1.41,1.41,0,0,0-1.2-.609,2.29,2.29,0,0,0-1.71.738,3.967,3.967,0,0,0-.994,2.01v5.527h.823v.877H40.89v-.877h.663v-8.659H41.3a3.193,3.193,0,0,1-.406-.021v-.866h2.266v1.1a3.77,3.77,0,0,1,2.983-1.336,2.82,2.82,0,0,1,2.277.973,4.17,4.17,0,0,1,.812,2.747v6.051h.8v.877H46.78Z" transform="translate(2.823 7.469)" fill="#231f20"/>
        <path id="Caminho_4" data-name="Caminho 4" d="M62.633,111.6a4.261,4.261,0,0,0-.267,1.1H67.69a4.236,4.236,0,0,0-.812-2.224,2.083,2.083,0,0,0-1.71-.812,2.369,2.369,0,0,0-2.053,1.037,4.186,4.186,0,0,0-.47.9m6.778,2.534h-7.1a4.713,4.713,0,0,0,.866,2.395,2.82,2.82,0,0,0,2.309,1.08,5.828,5.828,0,0,0,.663-.021,1.6,1.6,0,0,0,.524-.118,4.9,4.9,0,0,0,.663-.31c.257-.15.631-.353,1.1-.631l.663,1.336c-.567.31-1,.556-1.326.716a6.192,6.192,0,0,1-.834.363,2.751,2.751,0,0,1-.706.139c-.235.011-.545.021-.941.021a4.871,4.871,0,0,1-1.978-.385,4.137,4.137,0,0,1-1.5-1.09,4.811,4.811,0,0,1-.941-1.71,7.511,7.511,0,0,1-.321-2.277,6.742,6.742,0,0,1,.331-2.17,5.425,5.425,0,0,1,.93-1.721,4.241,4.241,0,0,1,1.411-1.133,4.2,4.2,0,0,1,5.014,1.048,6.56,6.56,0,0,1,1.2,4.041l-.043.449Z" transform="translate(4.182 7.47)" fill="#231f20"/>
        <path id="Caminho_5" data-name="Caminho 5" d="M86.184,118.241a3.8,3.8,0,0,1-2.608.855,5.381,5.381,0,0,1-1.24-.139,3.333,3.333,0,0,1-1.069-.417v.513H80.39v-2.8h.919a1.4,1.4,0,0,0,.738.973,2.86,2.86,0,0,0,1.518.385,2.208,2.208,0,0,0,1.336-.417,1.321,1.321,0,0,0,.567-1.1,1.384,1.384,0,0,0-.5-1.155,4.516,4.516,0,0,0-1.443-.727,10.2,10.2,0,0,1-1.144-.438,3.629,3.629,0,0,1-.941-.6,2.469,2.469,0,0,1-.631-.845,2.622,2.622,0,0,1-.235-1.176,3.108,3.108,0,0,1,.246-1.251,2.669,2.669,0,0,1,.673-.93,2.983,2.983,0,0,1,1.016-.588,3.78,3.78,0,0,1,1.272-.2,3.938,3.938,0,0,1,1.09.15,4.3,4.3,0,0,1,.994.363v-.535h.866v2.566l-.941.075v-.235a2.532,2.532,0,0,0-1.956-.9,1.684,1.684,0,0,0-1.229.4,1.393,1.393,0,0,0-.417,1.048,1.126,1.126,0,0,0,.5.941,5.273,5.273,0,0,0,1.539.684A4.977,4.977,0,0,1,86.462,114a2.818,2.818,0,0,1,.684,1.956,2.917,2.917,0,0,1-.962,2.3" transform="translate(5.55 7.467)" fill="#231f20"/>
        <path id="Caminho_6" data-name="Caminho 6" d="M85.013,55.791q-3.832-3.56-10.7-3.571H60.265a23.537,23.537,0,0,1,1.86,5.3H74.173q4.185,0,6.414,2.031t2.224,6.019q0,4.314-2.523,6.286c-1.571,1.229-3.9,1.871-6.992,1.946H61.74V94.362H58.8V97.44H70.046V94.362H67.63V79.181h6.543a18.284,18.284,0,0,0,6.051-.951,13.043,13.043,0,0,0,4.618-2.715,12.192,12.192,0,0,0,2.94-4.255A14.233,14.233,0,0,0,88.829,65.7q0-6.35-3.827-9.91" transform="translate(4.06 3.605)" fill="#231f20"/>
      </g>
      <path id="Caminho_7" data-name="Caminho 7" d="M0,52.23v9.878H3.015V57.522H13.673V94.361H10.594V97.44H22.706V94.361H19.692V57.522h8.852V52.23Z" transform="translate(0 3.606)" fill="#231f20"/>
      <g id="Grupo_2" data-name="Grupo 2" clip-path="url(#clip-path)">
        <path id="Caminho_8" data-name="Caminho 8" d="M53.113,78.4q-4.6,4.314-13.769,4.319H34.105V48.1h6.543q8.5,0,12.8,4.383c.118.118.214.267.331.385a14.3,14.3,0,0,1,2.951,5.3,24.182,24.182,0,0,1,1,7.269c0,5.762-1.539,10.07-4.618,12.957m9.9-20.216a21.619,21.619,0,0,0-2-5.3A18.86,18.86,0,0,0,58.02,48.8q-5.789-5.981-17.244-5.987H25.66v3.079h2.491V84.952H25.66V88.03H39.012A34.453,34.453,0,0,0,49.97,86.459a20.562,20.562,0,0,0,7.751-4.511,18.286,18.286,0,0,0,4.575-7.13,27.476,27.476,0,0,0,1.5-9.354,30.9,30.9,0,0,0-.8-7.269" transform="translate(1.772 2.956)" fill="#231f20"/>
        <path id="Caminho_9" data-name="Caminho 9" d="M59.63,11.057h2.48v2.619H59.63ZM57.887,21.673a2.974,2.974,0,0,1,1.743-2.7.6.6,0,0,0,.353-.545V14.884h1.775v3.539a.6.6,0,0,0,.353.545,2.986,2.986,0,0,1,1.743,2.7v2.833h1.208V21.673a4.2,4.2,0,0,0-2.1-3.624V14.82a.588.588,0,0,0,.353-.545V10.459a.6.6,0,0,0-.6-.6H59.031a.6.6,0,0,0-.6.6v3.816a.594.594,0,0,0,.353.545v3.228a4.2,4.2,0,0,0-2.1,3.624v2.833H57.9V21.673Z" transform="translate(3.914 0.681)" fill="#231f20"/>
        <path id="Caminho_10" data-name="Caminho 10" d="M37.554,4.554a14.84,14.84,0,0,0-2.149,3.4L34.24,6.788a13.03,13.03,0,0,1,3.314-2.234m2.9-.994c.064-.011.107-.032.16-.043.855-.171,1.678-.278,2.469-.363a15.175,15.175,0,0,0-4.8,7.686L36.4,8.948A12.86,12.86,0,0,1,40.451,3.56m5.078-.535a23.276,23.276,0,0,1,2.341.107c-2.491,1.7-5.345,4.918-6.35,10.936l-2.159-2.159c1.261-5.142,4.009-7.665,6.168-8.884m6.649,1.016C49.3,5.634,45.433,9.226,44.61,17.158L42.7,15.245C43.637,7.772,47.378,4.682,49.9,3.432a17.862,17.862,0,0,1,2.266.609M55.5,5.495a14.072,14.072,0,0,0-5.773,6.917l-3.624,3.624c1.176-7.579,5.335-10.37,7.74-11.364a17.332,17.332,0,0,1,1.668.823M26.7,36.411a.671.671,0,0,0,.941,0L44.8,19.253,61.96,36.411a.669.669,0,0,0,.941-.951L45.753,18.3,62.89,1.144a.684.684,0,0,0,0-.951.684.684,0,0,0-.951,0L57.214,4.918C54.2,2.951,48.576.567,40.323,2.2a14.918,14.918,0,0,0-7.034,3.645L27.644.192a.684.684,0,0,0-.951,0,.684.684,0,0,0,0,.951L43.84,18.3,26.692,35.46a.684.684,0,0,0,0,.951" transform="translate(1.83 0)" fill="#231f20"/>
        <path id="Caminho_11" data-name="Caminho 11" d="M46.736,26.621A1.256,1.256,0,1,1,48,27.872a1.257,1.257,0,0,1-1.261-1.251m-.5,4.672a1.251,1.251,0,1,1,1.251-1.251,1.252,1.252,0,0,1-1.251,1.251m-1.849,3.122a1.256,1.256,0,1,1,1.251-1.251,1.252,1.252,0,0,1-1.251,1.251m-1.86-3.122a1.251,1.251,0,1,1,0-2.5,1.251,1.251,0,0,1,0,2.5m-1.9-3.41a1.246,1.246,0,0,1-1.251-1.251,1.251,1.251,0,1,1,1.251,1.251m3.763-2.512a1.256,1.256,0,1,1-1.251,1.261,1.255,1.255,0,0,1,1.251-1.261m4.2,4.672a2.325,2.325,0,0,0-.278-1.09,2.345,2.345,0,1,0-2.117-3.806,2.308,2.308,0,0,0-3.677.1,2.341,2.341,0,0,0-4.233,1.39,2.3,2.3,0,0,0,2.181,2.331,2.315,2.315,0,0,0-.278,1.08,2.358,2.358,0,0,0,2,2.32,2.546,2.546,0,0,0-.15.812,2.341,2.341,0,0,0,4.682,0,2.284,2.284,0,0,0-.15-.812,2.341,2.341,0,0,0,2.01-2.32" transform="translate(2.643 1.676)" fill="#231f20"/>
        <path id="Caminho_12" data-name="Caminho 12" d="M23.448,13.395a5.008,5.008,0,0,1,.449-1.678h7.515a5.259,5.259,0,0,1,.438,1.678Zm8.413,1.037a4.516,4.516,0,0,1-4.212,4.426,4.516,4.516,0,0,1-4.212-4.426Zm1.048-.46a6.436,6.436,0,0,0-.738-3,.527.527,0,0,0-.46-.278H23.566a.511.511,0,0,0-.449.278,6.654,6.654,0,0,0-.652,4.02h0l.021.16a6.224,6.224,0,0,0,.15.673l.075.2h0a5.433,5.433,0,0,0,4.426,3.827v3.56H25.052a.513.513,0,0,0-.513.513.53.53,0,0,0,.513.524h5.2a.519.519,0,0,0,0-1.037H28.174v-3.56a5.7,5.7,0,0,0,4.747-5.88" transform="translate(1.546 0.738)" fill="#231f20"/>
      </g>
    </g>
  </g>
</svg>
